<?xml version="1.0" encoding="UTF-8"?>
<svg xmlns="http://www.w3.org/2000/svg" xmlns:xlink="http://www.w3.org/1999/xlink" width="307px" height="185px" viewBox="0 0 306 185" version="1.1">
<g id="surface1">
<path style=" stroke:none;fill-rule:nonzero;fill:rgb(94.901961%,94.901961%,94.901961%);fill-opacity:1;" d="M 297.882812 185.058594 C 325.910156 135.328125 272.15625 109.859375 265.234375 162.375 C 264.886719 155.597656 264.515625 148.710938 262.269531 142.308594 C 258.863281 129.027344 240.34375 119.402344 231.496094 132.847656 C 226.820312 141.175781 233.023438 152.863281 227.644531 160.757812 C 224.253906 140.890625 195.5 145.550781 198.527344 165.484375 C 200.800781 175.058594 210.886719 180.632812 218.9375 184.964844 Z M 297.882812 185.058594 "/>
<path style=" stroke:none;fill-rule:nonzero;fill:rgb(100%,100%,100%);fill-opacity:1;" d="M 202.644531 153.449219 C 216.871094 158.082031 234.652344 165.882812 236.09375 182.929688 C 236.136719 183.605469 237.1875 183.609375 237.148438 182.929688 C 236.777344 176.910156 233.855469 171.402344 229.804688 167.042969 C 225.363281 162.265625 219.609375 159.003906 213.667969 156.472656 C 212.507812 156.203125 200.417969 150.464844 202.644531 153.449219 Z M 202.644531 153.449219 "/>
<path style=" stroke:none;fill-rule:nonzero;fill:rgb(100%,100%,100%);fill-opacity:1;" d="M 238.589844 128.511719 C 248.433594 145.003906 253.117188 164.082031 252.035156 183.273438 C 251.996094 183.953125 253.050781 183.953125 253.089844 183.273438 C 253.929688 168.1875 251.25 153.113281 245.269531 139.25 C 244.597656 138.007812 239.175781 124.941406 238.589844 128.511719 Z M 238.589844 128.511719 "/>
<path style=" stroke:none;fill-rule:nonzero;fill:rgb(100%,100%,100%);fill-opacity:1;" d="M 290.183594 134.585938 C 283.242188 150.242188 278.945312 166.945312 277.472656 184.011719 C 277.414062 184.691406 278.46875 184.6875 278.527344 184.011719 C 279.671875 170.851562 282.507812 157.894531 286.960938 145.460938 C 286.949219 144.074219 293.027344 132.835938 290.183594 134.585938 Z M 290.183594 134.585938 "/>
<path style=" stroke:none;fill-rule:nonzero;fill:rgb(94.901961%,94.901961%,94.901961%);fill-opacity:1;" d="M 168.074219 184.203125 C 176.097656 169.96875 160.710938 162.675781 158.726562 177.707031 C 158.628906 175.769531 158.523438 173.796875 157.878906 171.964844 C 156.902344 168.164062 151.601562 165.410156 149.070312 169.257812 C 147.730469 171.640625 149.507812 174.988281 147.96875 177.246094 C 146.996094 171.558594 138.765625 172.894531 139.632812 178.597656 C 140.28125 181.339844 143.171875 182.9375 145.476562 184.175781 Z M 168.074219 184.203125 "/>
<path style=" stroke:none;fill-rule:nonzero;fill:rgb(100%,100%,100%);fill-opacity:1;" d="M 140.8125 175.15625 C 144.882812 176.480469 149.972656 178.714844 150.386719 183.59375 C 150.398438 183.789062 150.699219 183.789062 150.6875 183.59375 C 150.53125 181.878906 149.789062 180.273438 148.585938 179.046875 C 147.273438 177.722656 145.699219 176.695312 143.96875 176.019531 C 143.632812 175.941406 140.171875 174.300781 140.8125 175.15625 Z M 140.8125 175.15625 "/>
<path style=" stroke:none;fill-rule:nonzero;fill:rgb(100%,100%,100%);fill-opacity:1;" d="M 151.101562 168.015625 C 153.917969 172.738281 155.261719 178.199219 154.949219 183.691406 C 154.9375 183.886719 155.242188 183.886719 155.25 183.691406 C 155.492188 179.375 154.726562 175.058594 153.011719 171.089844 C 152.820312 170.734375 151.269531 166.992188 151.101562 168.015625 Z M 151.101562 168.015625 "/>
<path style=" stroke:none;fill-rule:nonzero;fill:rgb(100%,100%,100%);fill-opacity:1;" d="M 165.871094 169.753906 C 163.882812 174.234375 162.652344 179.015625 162.230469 183.902344 C 162.214844 184.097656 162.515625 184.097656 162.53125 183.902344 C 162.863281 180.136719 163.671875 176.425781 164.949219 172.867188 C 164.945312 172.472656 166.683594 169.253906 165.871094 169.753906 Z M 165.871094 169.753906 "/>
<path style=" stroke:none;fill-rule:nonzero;fill:rgb(24.705882%,23.921569%,33.72549%);fill-opacity:1;" d="M 116.648438 7.828125 L 0.410156 7.828125 C 0.183594 7.828125 0 7.644531 0 7.417969 C 0 7.1875 0.183594 7.003906 0.410156 7.003906 L 116.648438 7.003906 C 116.875 7.003906 117.058594 7.1875 117.058594 7.417969 C 117.058594 7.644531 116.875 7.828125 116.648438 7.828125 Z M 116.648438 7.828125 "/>
<path style=" stroke:none;fill-rule:nonzero;fill:rgb(60.392157%,21.568627%,66.666667%);fill-opacity:1;" d="M 99.726562 7.003906 C 99.726562 10.871094 96.601562 14.007812 92.746094 14.007812 C 88.886719 14.007812 85.761719 10.871094 85.761719 7.003906 C 85.761719 3.136719 88.886719 0 92.746094 0 C 96.601562 0 99.726562 3.136719 99.726562 7.003906 Z M 99.726562 7.003906 "/>
<path style=" stroke:none;fill-rule:nonzero;fill:rgb(24.705882%,23.921569%,33.72549%);fill-opacity:1;" d="M 116.648438 34.199219 L 0.410156 34.199219 C 0.183594 34.199219 0 34.015625 0 33.785156 C 0 33.558594 0.183594 33.375 0.410156 33.375 L 116.648438 33.375 C 116.875 33.375 117.058594 33.558594 117.058594 33.785156 C 117.058594 34.015625 116.875 34.199219 116.648438 34.199219 Z M 116.648438 34.199219 "/>
<path style=" stroke:none;fill-rule:nonzero;fill:rgb(60.392157%,21.568627%,66.666667%);fill-opacity:1;" d="M 34.832031 33.375 C 34.832031 37.242188 31.703125 40.378906 27.847656 40.378906 C 23.992188 40.378906 20.863281 37.242188 20.863281 33.375 C 20.863281 29.503906 23.992188 26.371094 27.847656 26.371094 C 31.703125 26.371094 34.832031 29.503906 34.832031 33.375 Z M 34.832031 33.375 "/>
<path style=" stroke:none;fill-rule:nonzero;fill:rgb(24.705882%,23.921569%,33.72549%);fill-opacity:1;" d="M 116.648438 60.566406 L 0.410156 60.566406 C 0.183594 60.566406 0 60.382812 0 60.15625 C 0 59.929688 0.183594 59.742188 0.410156 59.742188 L 116.648438 59.742188 C 116.875 59.742188 117.058594 59.929688 117.058594 60.15625 C 117.058594 60.382812 116.875 60.566406 116.648438 60.566406 Z M 116.648438 60.566406 "/>
<path style=" stroke:none;fill-rule:nonzero;fill:rgb(60.392157%,21.568627%,66.666667%);fill-opacity:1;" d="M 62.351562 59.742188 C 62.351562 63.613281 59.222656 66.75 55.367188 66.75 C 51.511719 66.75 48.382812 63.613281 48.382812 59.742188 C 48.382812 55.875 51.511719 52.738281 55.367188 52.738281 C 59.222656 52.738281 62.351562 55.875 62.351562 59.742188 Z M 62.351562 59.742188 "/>
<path style=" stroke:none;fill-rule:nonzero;fill:rgb(100%,72.156863%,72.156863%);fill-opacity:1;" d="M 169.867188 64.757812 C 170.011719 64.953125 170.140625 65.160156 170.25 65.378906 L 191.898438 67.820312 L 195.046875 63.550781 L 202.089844 67.476562 L 195.890625 77.84375 L 169.367188 70.859375 C 167.988281 72.191406 165.925781 72.527344 164.195312 71.703125 C 162.464844 70.878906 161.421875 69.066406 161.578125 67.148438 C 161.734375 65.230469 163.058594 63.613281 164.898438 63.082031 C 166.742188 62.550781 168.71875 63.214844 169.867188 64.757812 Z M 169.867188 64.757812 "/>
<path style=" stroke:none;fill-rule:nonzero;fill:rgb(60.392157%,21.568627%,66.666667%);fill-opacity:1;" d="M 200.550781 71.1875 C 200.375 71.113281 200.214844 71.011719 200.070312 70.886719 L 191.367188 63.535156 C 190.945312 63.175781 190.691406 62.660156 190.667969 62.105469 C 190.640625 61.550781 190.851562 61.011719 191.242188 60.617188 L 199.136719 52.664062 C 199.820312 51.96875 200.910156 51.882812 201.699219 52.460938 L 207.667969 56.808594 C 208.4375 57.371094 208.699219 58.402344 208.292969 59.261719 L 203.128906 70.21875 C 202.671875 71.1875 201.53125 71.617188 200.550781 71.1875 Z M 200.550781 71.1875 "/>
<path style=" stroke:none;fill-rule:nonzero;fill:rgb(100%,72.156863%,72.156863%);fill-opacity:1;" d="M 234.488281 175.175781 L 229.289062 176.59375 L 221.363281 157.164062 L 229.035156 155.070312 Z M 234.488281 175.175781 "/>
<path style=" stroke:none;fill-rule:nonzero;fill:rgb(18.431373%,18.039216%,25.490196%);fill-opacity:1;" d="M 224.765625 176.230469 L 235.195312 173.382812 L 236.914062 179.710938 L 220.582031 184.167969 L 220.46875 183.757812 C 219.582031 180.488281 221.507812 177.117188 224.765625 176.230469 Z M 224.765625 176.230469 "/>
<path style=" stroke:none;fill-rule:nonzero;fill:rgb(100%,72.156863%,72.156863%);fill-opacity:1;" d="M 190.0625 179.152344 L 184.679688 179.152344 L 182.117188 158.316406 L 190.0625 158.316406 Z M 190.0625 179.152344 "/>
<path style=" stroke:none;fill-rule:nonzero;fill:rgb(18.431373%,18.039216%,25.490196%);fill-opacity:1;" d="M 180.40625 177.609375 L 191.21875 177.609375 L 191.21875 184.167969 L 174.292969 184.167969 L 174.292969 183.742188 C 174.292969 180.355469 177.027344 177.609375 180.40625 177.609375 Z M 180.40625 177.609375 "/>
<path style=" stroke:none;fill-rule:nonzero;fill:rgb(100%,72.156863%,72.156863%);fill-opacity:1;" d="M 205.804688 23.097656 C 210.019531 27.324219 210.019531 34.175781 205.804688 38.402344 C 201.589844 42.628906 194.761719 42.628906 190.546875 38.402344 C 186.332031 34.175781 186.332031 27.324219 190.546875 23.097656 C 194.761719 18.871094 201.589844 18.871094 205.804688 23.097656 Z M 205.804688 23.097656 "/>
<path style=" stroke:none;fill-rule:nonzero;fill:rgb(18.431373%,18.039216%,25.490196%);fill-opacity:1;" d="M 189.734375 164.296875 L 182.375 164.296875 C 181.328125 164.292969 180.464844 163.480469 180.398438 162.4375 C 178.207031 127.464844 179.488281 102.378906 184.4375 83.492188 C 184.457031 83.410156 184.484375 83.328125 184.515625 83.25 L 184.910156 82.261719 C 185.207031 81.503906 185.9375 81.011719 186.746094 81.011719 L 201.878906 81.011719 C 202.457031 81.011719 203.003906 81.265625 203.378906 81.707031 L 205.4375 84.113281 C 205.476562 84.160156 205.511719 84.207031 205.550781 84.257812 C 214.820312 97.222656 223.125 122.574219 232.746094 156.644531 C 233.042969 157.675781 232.464844 158.753906 231.445312 159.078125 L 223.539062 161.617188 C 222.597656 161.914062 221.585938 161.476562 221.15625 160.589844 L 200.628906 117.886719 C 200.335938 117.273438 199.675781 116.925781 199.003906 117.03125 C 198.335938 117.140625 197.8125 117.671875 197.722656 118.347656 L 191.691406 162.582031 C 191.554688 163.5625 190.71875 164.292969 189.734375 164.296875 Z M 189.734375 164.296875 "/>
<path style=" stroke:none;fill-rule:nonzero;fill:rgb(60.392157%,21.568627%,66.666667%);fill-opacity:1;" d="M 204.605469 84.289062 C 204.585938 84.289062 204.566406 84.289062 204.542969 84.285156 L 186.160156 83.703125 C 185.183594 83.675781 184.375 82.933594 184.257812 81.960938 C 181.929688 63.039062 188.320312 57.96875 191.175781 56.667969 C 191.660156 56.449219 191.996094 55.992188 192.058594 55.460938 L 192.308594 53.476562 C 192.347656 53.128906 192.484375 52.792969 192.699219 52.515625 C 197.175781 46.695312 203.289062 44.832031 206.535156 44.238281 C 207.070312 44.144531 207.617188 44.269531 208.050781 44.589844 C 208.488281 44.914062 208.773438 45.398438 208.84375 45.9375 L 209.214844 48.785156 C 209.25 49.054688 209.359375 49.3125 209.527344 49.53125 C 218.863281 61.777344 208.460938 79.859375 206.28125 83.359375 C 205.917969 83.9375 205.285156 84.285156 204.605469 84.289062 Z M 204.605469 84.289062 "/>
<path style=" stroke:none;fill-rule:nonzero;fill:rgb(100%,72.156863%,72.156863%);fill-opacity:1;" d="M 202.890625 111.183594 C 204.035156 110.378906 204.765625 109.105469 204.882812 107.710938 C 205.003906 106.316406 204.5 104.9375 203.507812 103.949219 L 206.925781 62.585938 L 196.757812 63.988281 L 196.5625 104.179688 C 194.984375 105.996094 195.011719 108.714844 196.625 110.5 C 198.242188 112.289062 200.933594 112.582031 202.890625 111.183594 Z M 202.890625 111.183594 "/>
<path style=" stroke:none;fill-rule:nonzero;fill:rgb(60.392157%,21.568627%,66.666667%);fill-opacity:1;" d="M 207.589844 68.542969 C 207.398438 68.542969 207.207031 68.515625 207.027344 68.460938 L 196.113281 65.242188 C 195.582031 65.085938 195.140625 64.710938 194.894531 64.214844 C 194.652344 63.71875 194.625 63.140625 194.824219 62.621094 L 198.863281 52.15625 C 199.214844 51.242188 200.175781 50.722656 201.128906 50.933594 L 208.339844 52.507812 C 209.269531 52.710938 209.921875 53.546875 209.894531 54.5 L 209.558594 66.613281 C 209.53125 67.683594 208.65625 68.539062 207.589844 68.542969 Z M 207.589844 68.542969 "/>
<path style=" stroke:none;fill-rule:nonzero;fill:rgb(24.705882%,23.921569%,33.72549%);fill-opacity:1;" d="M 298.613281 185 L 142.121094 185 C 141.894531 185 141.710938 184.816406 141.710938 184.589844 C 141.710938 184.359375 141.894531 184.175781 142.121094 184.175781 L 298.613281 184.175781 C 298.839844 184.175781 299.023438 184.359375 299.023438 184.589844 C 299.023438 184.816406 298.839844 185 298.613281 185 Z M 298.613281 185 "/>
<path style=" stroke:none;fill-rule:nonzero;fill:rgb(18.431373%,18.039216%,25.490196%);fill-opacity:1;" d="M 210.046875 24.019531 C 209.246094 21.582031 208.652344 19.082031 208.277344 16.542969 C 208.160156 15.066406 208.539062 13.476562 209.609375 12.457031 C 211.617188 10.546875 215.03125 11.457031 217.128906 13.261719 C 220.164062 15.871094 221.675781 19.882812 222.25 23.851562 C 222.820312 27.820312 222.570312 31.855469 222.707031 35.863281 C 222.84375 39.871094 223.414062 43.988281 225.453125 47.441406 C 227.488281 50.890625 231.269531 53.539062 235.253906 53.246094 C 236.863281 53.15625 238.390625 52.507812 239.574219 51.410156 C 240.75 50.285156 241.308594 48.660156 241.078125 47.046875 C 243.113281 50.707031 242.082031 55.667969 239.042969 58.542969 C 236.003906 61.421875 231.328125 62.234375 227.332031 61.007812 C 223.339844 59.777344 220.050781 56.699219 218.085938 53 C 216.121094 49.296875 215.402344 45.023438 215.507812 40.832031 C 215.585938 37.617188 216.132812 34.371094 215.589844 31.199219 C 215.046875 28.027344 213.066406 24.804688 209.945312 24.058594 Z M 210.046875 24.019531 "/>
<path style=" stroke:none;fill-rule:nonzero;fill:rgb(18.431373%,18.039216%,25.490196%);fill-opacity:1;" d="M 196.03125 28.191406 C 195.496094 29.972656 193.460938 31.074219 191.628906 30.773438 C 189.800781 30.46875 188.292969 28.957031 187.738281 27.183594 C 187.234375 25.367188 187.441406 23.429688 188.3125 21.765625 C 189.285156 19.746094 191.015625 18.199219 193.125 17.464844 C 195.257812 16.753906 197.601562 17.128906 199.40625 18.46875 C 199.597656 17.65625 200.214844 17.007812 201.019531 16.777344 C 201.8125 16.5625 202.652344 16.574219 203.441406 16.8125 C 205.710938 17.460938 207.679688 18.898438 208.996094 20.867188 C 210.292969 22.828125 211.152344 25.046875 211.511719 27.375 C 212.132812 30.863281 211.902344 34.675781 209.949219 37.628906 C 207.996094 40.582031 204 42.328125 200.757812 40.917969 C 200.554688 39.882812 201.035156 38.839844 201.589844 37.941406 C 202.144531 37.042969 202.800781 36.167969 203.011719 35.132812 C 203.226562 34.097656 202.816406 32.832031 201.820312 32.492188 C 200.96875 32.203125 200.0625 32.671875 199.164062 32.730469 C 198.128906 32.792969 197.136719 32.300781 196.558594 31.433594 C 195.984375 30.566406 195.914062 29.457031 196.371094 28.523438 Z M 196.03125 28.191406 "/>
</g>
</svg>
